<?xml version="1.0" encoding="UTF-8"?>
<svg fill="white" xmlns="http://www.w3.org/2000/svg" id="Solid" width="512" height="512" viewBox="0 0 512 512"><g><path d="M325.657,445.657A8,8,0,0,1,320,448H192a8,8,0,0,1-5.657-2.343L172.687,432H32v20a12.013,12.013,0,0,0,12,12H468a12.013,12.013,0,0,0,12-12V432H339.313Z"/><path d="M32,416H176a8,8,0,0,1,5.657,2.343L195.313,432H316.687l13.656-13.657A8,8,0,0,1,336,416H480V112H32ZM453.657,157.657l-56,56a8,8,0,0,1-11.314,0l-24-24,11.314-11.314L392,196.687l50.343-50.344Zm0,136-56,56a8,8,0,0,1-11.314,0l-24-24,11.314-11.314L392,332.687l50.343-50.344ZM336,162a18.021,18.021,0,0,1,18-18h54v16H354a2,2,0,0,0-2,2v68a2,2,0,0,0,2,2h70v16H354a18.021,18.021,0,0,1-18-18Zm0,136a18.021,18.021,0,0,1,18-18h54v16H354a2,2,0,0,0-2,2v68a2,2,0,0,0,2,2h70v16H354a18.021,18.021,0,0,1-18-18ZM132,248a75.923,75.923,0,0,1,17.981,2.149l50.864-101.727a8,8,0,0,1,14.31,0l96,192A8,8,0,0,1,304,352H202.656A76,76,0,1,1,132,248Z"/><path d="M208,324a76.344,76.344,0,0,1-.946,12h84L208,169.889l-42.862,85.723A76.093,76.093,0,0,1,208,324Z"/><circle cx="132" cy="324" r="60"/><path d="M32,58V96H480V58a10,10,0,0,0-10-10H42A10,10,0,0,0,32,58ZM64,80H48V64H64Zm32,0H80V64H96Zm32,0H112V64h16Zm336,0H448V64h16Z"/></g></svg>
